<svg width="121" height="72" viewBox="0 0 121 72" fill="none" xmlns="http://www.w3.org/2000/svg">
<path d="M7.10156 52.0596C6.46875 52.8037 5.54004 53.1758 4.31543 53.1758C3.30176 53.1758 2.52832 52.8828 1.99512 52.2969C1.46777 51.7051 1.20117 50.832 1.19531 49.6777V43.4902H2.82129V49.6338C2.82129 51.0752 3.40723 51.7959 4.5791 51.7959C5.82129 51.7959 6.64746 51.333 7.05762 50.4072V43.4902H8.68359V53H7.13672L7.10156 52.0596ZM30.3047 48.3506C30.3047 49.8037 29.9707 50.9727 29.3027 51.8574C28.6348 52.7363 27.7383 53.1758 26.6133 53.1758C25.4121 53.1758 24.4834 52.751 23.8271 51.9014L23.748 53H22.2539V39.5H23.8799V44.5361C24.5361 43.7217 25.4414 43.3145 26.5957 43.3145C27.75 43.3145 28.6553 43.751 29.3115 44.624C29.9736 45.4971 30.3047 46.6924 30.3047 48.21V48.3506ZM28.6787 48.166C28.6787 47.0586 28.4648 46.2031 28.0371 45.5996C27.6094 44.9961 26.9941 44.6943 26.1914 44.6943C25.1191 44.6943 24.3486 45.1924 23.8799 46.1885V50.3018C24.3779 51.2979 25.1543 51.7959 26.209 51.7959C26.9883 51.7959 27.5947 51.4941 28.0283 50.8906C28.4619 50.2871 28.6787 49.3789 28.6787 48.166ZM38.2324 53C38.1387 52.8125 38.0625 52.4785 38.0039 51.998C37.248 52.7832 36.3457 53.1758 35.2969 53.1758C34.3594 53.1758 33.5889 52.9121 32.9854 52.3848C32.3877 51.8516 32.0889 51.1777 32.0889 50.3633C32.0889 49.373 32.4639 48.6055 33.2139 48.0605C33.9697 47.5098 35.0303 47.2344 36.3955 47.2344H37.9775V46.4873C37.9775 45.9189 37.8076 45.4678 37.4678 45.1338C37.1279 44.7939 36.627 44.624 35.9648 44.624C35.3848 44.624 34.8984 44.7705 34.5059 45.0635C34.1133 45.3564 33.917 45.7109 33.917 46.127H32.2822C32.2822 45.6523 32.4492 45.1953 32.7832 44.7559C33.123 44.3105 33.5801 43.959 34.1543 43.7012C34.7344 43.4434 35.3701 43.3145 36.0615 43.3145C37.1572 43.3145 38.0156 43.5898 38.6367 44.1406C39.2578 44.6855 39.5801 45.4385 39.6035 46.3994V50.7764C39.6035 51.6494 39.7148 52.3438 39.9375 52.8594V53H38.2324ZM35.5342 51.7607C36.0439 51.7607 36.5273 51.6289 36.9844 51.3652C37.4414 51.1016 37.7725 50.7588 37.9775 50.3369V48.3857H36.7031C34.7109 48.3857 33.7148 48.9688 33.7148 50.1348C33.7148 50.6445 33.8848 51.043 34.2246 51.3301C34.5645 51.6172 35.001 51.7607 35.5342 51.7607ZM43.6904 43.4902L43.7432 44.6855C44.4697 43.7715 45.4189 43.3145 46.5908 43.3145C48.6006 43.3145 49.6143 44.4482 49.6318 46.7158V53H48.0059V46.707C48 46.0215 47.8418 45.5146 47.5312 45.1865C47.2266 44.8584 46.749 44.6943 46.0986 44.6943C45.5713 44.6943 45.1084 44.835 44.71 45.1162C44.3115 45.3975 44.001 45.7666 43.7783 46.2236V53H42.1523V43.4902H43.6904ZM65.9015 51.752C65.7095 51.896 65.4375 52.056 65.0855 52.232C64.7495 52.392 64.3495 52.544 63.8855 52.688C63.4215 52.832 62.9015 52.952 62.3255 53.048C61.7655 53.144 61.1655 53.192 60.5255 53.192C59.1655 53.192 57.9415 52.96 56.8535 52.496C55.7815 52.016 54.8695 51.376 54.1175 50.576C53.3655 49.776 52.7895 48.848 52.3895 47.792C51.9895 46.736 51.7895 45.616 51.7895 44.432C51.7895 43.12 52.0215 41.912 52.4855 40.808C52.9655 39.704 53.6135 38.752 54.4295 37.952C55.2455 37.152 56.1975 36.528 57.2855 36.08C58.3895 35.632 59.5575 35.408 60.7895 35.408C61.2535 35.408 61.7255 35.44 62.2055 35.504C62.6855 35.568 63.1335 35.656 63.5495 35.768C63.9815 35.88 64.3575 36.016 64.6775 36.176C65.0135 36.32 65.2695 36.472 65.4455 36.632C65.3175 36.824 65.2135 36.984 65.1335 37.112C65.0695 37.24 64.9975 37.376 64.9175 37.52C64.8375 37.648 64.7495 37.8 64.6535 37.976C64.5575 38.152 64.4295 38.384 64.2695 38.672C64.0615 38.528 63.8135 38.408 63.5255 38.312C63.2535 38.216 62.9655 38.136 62.6615 38.072C62.3575 38.008 62.0455 37.96 61.7255 37.928C61.4215 37.896 61.1415 37.88 60.8855 37.88C59.9575 37.88 59.0935 38.056 58.2935 38.408C57.5095 38.744 56.8295 39.208 56.2535 39.8C55.6775 40.376 55.2215 41.048 54.8855 41.816C54.5655 42.584 54.4055 43.384 54.4055 44.216C54.4055 45.032 54.5575 45.816 54.8615 46.568C55.1815 47.32 55.6135 47.992 56.1575 48.584C56.7175 49.176 57.3815 49.648 58.1495 50C58.9335 50.352 59.7895 50.528 60.7175 50.528C61.2135 50.528 61.6935 50.48 62.1575 50.384C62.6215 50.288 63.0375 50.176 63.4055 50.048C63.7895 49.92 64.1015 49.792 64.3415 49.664C64.5975 49.536 64.7495 49.44 64.7975 49.376L65.9015 51.752ZM79.0702 53C78.9902 52.824 78.8782 52.568 78.7342 52.232C78.5902 51.896 78.4222 51.512 78.2302 51.08C78.0542 50.632 77.8542 50.152 77.6302 49.64C77.4222 49.112 77.2062 48.568 76.9822 48.008H70.8382L68.7742 53H66.1822L73.9342 34.784C74.0302 35.008 74.1982 35.416 74.4382 36.008C74.6942 36.6 74.9902 37.312 75.3262 38.144C75.6782 38.96 76.0622 39.872 76.4782 40.88C76.9102 41.872 77.3422 42.88 77.7742 43.904C78.2222 44.928 78.6542 45.936 79.0702 46.928C79.5022 47.92 79.8942 48.832 80.2462 49.664C80.5982 50.496 80.8942 51.208 81.1342 51.8C81.3902 52.376 81.5662 52.776 81.6622 53H79.0702ZM71.7502 45.8H76.0942C75.8702 45.272 75.6542 44.768 75.4462 44.288C75.2542 43.792 75.0702 43.344 74.8942 42.944C74.7342 42.528 74.5902 42.168 74.4622 41.864C74.3342 41.56 74.2382 41.32 74.1742 41.144C74.1582 41.112 74.1182 41 74.0542 40.808C74.0062 40.616 73.9662 40.44 73.9342 40.28C73.9022 40.44 73.8542 40.616 73.7902 40.808C73.7262 41 73.6862 41.112 73.6702 41.144L71.7502 45.8ZM109.032 35.6V38.096H104.64V53H102.024V38.096H97.7276V35.6H109.032Z" fill="black"/>
<path d="M16.1104 47.8232H13.1045V53H11.4082V40.2031H15.6445C17.0859 40.2031 18.1934 40.5312 18.9668 41.1875C19.7461 41.8438 20.1357 42.7988 20.1357 44.0527C20.1357 44.8496 19.9189 45.5439 19.4854 46.1357C19.0576 46.7275 18.46 47.1699 17.6924 47.4629L20.6982 52.8945V53H18.8877L16.1104 47.8232ZM13.1045 46.4434H15.6973C16.5352 46.4434 17.2002 46.2266 17.6924 45.793C18.1904 45.3594 18.4395 44.7793 18.4395 44.0527C18.4395 43.2617 18.2021 42.6553 17.7275 42.2334C17.2588 41.8115 16.5791 41.5977 15.6885 41.5918H13.1045V46.4434ZM112.578 50.312C112.578 49.544 112.85 48.904 113.394 48.392C113.97 47.848 114.61 47.576 115.314 47.576C115.954 47.576 116.546 47.848 117.09 48.392C117.666 48.904 117.954 49.544 117.954 50.312C117.954 51.144 117.666 51.8 117.09 52.28C116.546 52.76 115.954 53 115.314 53C114.61 53 113.97 52.76 113.394 52.28C112.85 51.8 112.578 51.144 112.578 50.312Z" fill="#e63946"/>
<path d="M83.8333 53V35.6H88.5853C89.4973 35.6 90.3293 35.72 91.0813 35.96C91.8493 36.2 92.5053 36.56 93.0493 37.04C93.6093 37.504 94.0413 38.08 94.3453 38.768C94.6493 39.44 94.8013 40.216 94.8013 41.096C94.8013 41.576 94.7533 42.056 94.6573 42.536C94.5613 43 94.4013 43.456 94.1773 43.904C93.9693 44.336 93.6973 44.744 93.3613 45.128C93.0253 45.496 92.6173 45.808 92.1373 46.064C92.7773 47.072 93.4733 48.192 94.2253 49.424C94.9773 50.64 95.7373 51.832 96.5053 53H93.3613C93.0413 52.504 92.7053 51.984 92.3533 51.44C92.0173 50.896 91.6733 50.36 91.3213 49.832C90.9853 49.288 90.6493 48.76 90.3133 48.248C89.9933 47.72 89.6893 47.232 89.4013 46.784H88.9213H86.4733V53H83.8333ZM86.4733 44.312H88.8493C89.4893 44.312 90.0253 44.208 90.4573 44C90.8893 43.776 91.2253 43.504 91.4653 43.184C91.7213 42.864 91.8973 42.52 91.9933 42.152C92.1053 41.784 92.1613 41.448 92.1613 41.144C92.1613 40.84 92.1053 40.512 91.9933 40.16C91.8973 39.792 91.7213 39.456 91.4653 39.152C91.2093 38.832 90.8653 38.568 90.4333 38.36C90.0173 38.152 89.4973 38.048 88.8733 38.048H86.4733V44.312Z" fill="#e63946"/>
<path d="M7.10156 52.0596L8.10086 52.0222L8.00485 49.4537L6.33977 51.4117L7.10156 52.0596ZM1.99512 52.2969L1.24848 52.9622L1.25551 52.9699L1.99512 52.2969ZM1.19531 49.6777H0.1953L0.195325 49.6828L1.19531 49.6777ZM1.19531 43.4902V42.4902H0.195312V43.4902H1.19531ZM2.82129 43.4902H3.82129V42.4902H2.82129V43.4902ZM7.05762 50.4072L7.97191 50.8123L8.05762 50.6188V50.4072H7.05762ZM7.05762 43.4902V42.4902H6.05762V43.4902H7.05762ZM8.68359 43.4902H9.68359V42.4902H8.68359V43.4902ZM8.68359 53V54H9.68359V53H8.68359ZM7.13672 53L6.13742 53.0374L6.1734 54H7.13672V53ZM6.33977 51.4117C5.94363 51.8776 5.32737 52.1758 4.31543 52.1758V54.1758C5.75271 54.1758 6.99387 53.7298 7.86335 52.7074L6.33977 51.4117ZM4.31543 52.1758C3.49959 52.1758 3.02856 51.9467 2.73472 51.6238L1.25551 52.9699C2.02808 53.8189 3.10393 54.1758 4.31543 54.1758V52.1758ZM2.74171 51.6316C2.43668 51.2893 2.20048 50.6925 2.1953 49.6727L0.195325 49.6828C0.201867 50.9716 0.498868 52.1209 1.24852 52.9622L2.74171 51.6316ZM2.19531 49.6777V43.4902H0.195312V49.6777H2.19531ZM1.19531 44.4902H2.82129V42.4902H1.19531V44.4902ZM1.82129 43.4902V49.6338H3.82129V43.4902H1.82129ZM1.82129 49.6338C1.82129 50.4642 1.98592 51.2726 2.48482 51.8862C3.01592 52.5395 3.77799 52.7959 4.5791 52.7959V50.7959C4.20834 50.7959 4.0915 50.692 4.03666 50.6245C3.94963 50.5175 3.82129 50.2448 3.82129 49.6338H1.82129ZM4.5791 52.7959C5.31962 52.7959 6.01731 52.6583 6.61916 52.3211C7.23431 51.9765 7.6857 51.4583 7.97191 50.8123L6.14333 50.0022C6.01938 50.2819 5.85261 50.4581 5.64158 50.5763C5.41726 50.702 5.08077 50.7959 4.5791 50.7959V52.7959ZM8.05762 50.4072V43.4902H6.05762V50.4072H8.05762ZM7.05762 44.4902H8.68359V42.4902H7.05762V44.4902ZM7.68359 43.4902V53H9.68359V43.4902H7.68359ZM8.68359 52H7.13672V54H8.68359V52ZM8.13602 52.9626L8.10086 52.0222L6.10226 52.0969L6.13742 53.0374L8.13602 52.9626ZM16.1104 47.8232L16.9915 47.3505L16.7087 46.8232H16.1104V47.8232ZM13.1045 47.8232V46.8232H12.1045V47.8232H13.1045ZM13.1045 53V54H14.1045V53H13.1045ZM11.4082 53H10.4082V54H11.4082V53ZM11.4082 40.2031V39.2031H10.4082V40.2031H11.4082ZM18.9668 41.1875L18.3198 41.95L18.3227 41.9524L18.9668 41.1875ZM19.4854 46.1357L18.6787 45.5447L18.6749 45.55L19.4854 46.1357ZM17.6924 47.4629L17.3358 46.5286L16.2597 46.9393L16.8174 47.9471L17.6924 47.4629ZM20.6982 52.8945H21.6982V52.6363L21.5732 52.4103L20.6982 52.8945ZM20.6982 53V54H21.6982V53H20.6982ZM18.8877 53L18.0065 53.4728L18.2894 54H18.8877V53ZM13.1045 46.4434H12.1045V47.4434H13.1045V46.4434ZM17.6924 45.793L17.0358 45.0387L17.0314 45.0426L17.6924 45.793ZM17.7275 42.2334L17.0586 42.9767L17.0632 42.9808L17.7275 42.2334ZM15.6885 41.5918L15.6951 40.5918H15.6885V41.5918ZM13.1045 41.5918V40.5918H12.1045V41.5918H13.1045ZM16.1104 46.8232H13.1045V48.8232H16.1104V46.8232ZM12.1045 47.8232V53H14.1045V47.8232H12.1045ZM13.1045 52H11.4082V54H13.1045V52ZM12.4082 53V40.2031H10.4082V53H12.4082ZM11.4082 41.2031H15.6445V39.2031H11.4082V41.2031ZM15.6445 41.2031C16.9473 41.2031 17.7901 41.5005 18.3198 41.95L19.6138 40.425C18.5966 39.562 17.2246 39.2031 15.6445 39.2031V41.2031ZM18.3227 41.9524C18.825 42.3755 19.1357 43.0195 19.1357 44.0527H21.1357C21.1357 42.5782 20.6671 41.312 19.6109 40.4226L18.3227 41.9524ZM19.1357 44.0527C19.1357 44.6564 18.9757 45.1394 18.6787 45.5447L20.292 46.7268C20.8622 45.9485 21.1357 45.0428 21.1357 44.0527H19.1357ZM18.6749 45.55C18.3752 45.9646 17.9449 46.2961 17.3358 46.5286L18.049 48.3972C18.975 48.0437 19.7401 47.4905 20.2958 46.7215L18.6749 45.55ZM16.8174 47.9471L19.8233 53.3787L21.5732 52.4103L18.5673 46.9787L16.8174 47.9471ZM19.6982 52.8945V53H21.6982V52.8945H19.6982ZM20.6982 52H18.8877V54H20.6982V52ZM19.7689 52.5272L16.9915 47.3505L15.2292 48.296L18.0065 53.4728L19.7689 52.5272ZM13.1045 47.4434H15.6973V45.4434H13.1045V47.4434ZM15.6973 47.4434C16.7091 47.4434 17.6325 47.1785 18.3534 46.5433L17.0314 45.0426C16.7679 45.2747 16.3613 45.4434 15.6973 45.4434V47.4434ZM18.349 46.5472C19.0886 45.9033 19.4395 45.0359 19.4395 44.0527H17.4395C17.4395 44.5227 17.2922 44.8155 17.0358 45.0387L18.349 46.5472ZM19.4395 44.0527C19.4395 43.0517 19.1307 42.1427 18.3919 41.486L17.0632 42.9808C17.2736 43.1679 17.4395 43.4717 17.4395 44.0527H19.4395ZM18.3965 41.4901C17.683 40.8479 16.7301 40.5986 15.6951 40.5918L15.6819 42.5918C16.4281 42.5967 16.8346 42.7751 17.0586 42.9767L18.3965 41.4901ZM15.6885 40.5918H13.1045V42.5918H15.6885V40.5918ZM12.1045 41.5918V46.4434H14.1045V41.5918H12.1045ZM29.3027 51.8574L30.0989 52.4625L30.1008 52.46L29.3027 51.8574ZM23.8271 51.9014L24.6186 51.2901L23.0178 49.2177L22.8297 51.8296L23.8271 51.9014ZM23.748 53V54H24.6786L24.7455 53.0718L23.748 53ZM22.2539 53H21.2539V54H22.2539V53ZM22.2539 39.5V38.5H21.2539V39.5H22.2539ZM23.8799 39.5H24.8799V38.5H23.8799V39.5ZM23.8799 44.5361H22.8799V47.371L24.6586 45.1636L23.8799 44.5361ZM29.3115 44.624L28.5122 45.2249L28.5147 45.2283L29.3115 44.624ZM23.8799 46.1885L22.9751 45.7627L22.8799 45.9649V46.1885H23.8799ZM23.8799 50.3018H22.8799V50.5378L22.9855 50.749L23.8799 50.3018ZM29.3047 48.3506C29.3047 49.6538 29.006 50.5908 28.5046 51.2549L30.1008 52.46C30.9354 51.3545 31.3047 49.9536 31.3047 48.3506H29.3047ZM28.5066 51.2523C28.0319 51.8769 27.4328 52.1758 26.6133 52.1758V54.1758C28.0438 54.1758 29.2376 53.5958 30.0989 52.4625L28.5066 51.2523ZM26.6133 52.1758C25.6798 52.1758 25.0611 51.8631 24.6186 51.2901L23.0357 52.5127C23.9057 53.6389 25.1444 54.1758 26.6133 54.1758V52.1758ZM22.8297 51.8296L22.7506 52.9282L24.7455 53.0718L24.8246 51.9732L22.8297 51.8296ZM23.748 52H22.2539V54H23.748V52ZM23.2539 53V39.5H21.2539V53H23.2539ZM22.2539 40.5H23.8799V38.5H22.2539V40.5ZM22.8799 39.5V44.5361H24.8799V39.5H22.8799ZM24.6586 45.1636C25.1037 44.6111 25.7083 44.3145 26.5957 44.3145V42.3145C25.1745 42.3145 23.9686 42.8322 23.1012 43.9087L24.6586 45.1636ZM26.5957 44.3145C27.4565 44.3145 28.057 44.6194 28.5122 45.2249L30.1109 44.0232C29.2535 42.8826 28.0435 42.3145 26.5957 42.3145V44.3145ZM28.5147 45.2283C29.0026 45.8716 29.3047 46.8282 29.3047 48.21H31.3047C31.3047 46.5566 30.9446 45.1225 30.1083 44.0198L28.5147 45.2283ZM29.3047 48.21V48.3506H31.3047V48.21H29.3047ZM29.6787 48.166C29.6787 46.9488 29.4466 45.8589 28.853 45.0214L27.2212 46.1778C27.4831 46.5473 27.6787 47.1684 27.6787 48.166H29.6787ZM28.853 45.0214C28.2198 44.128 27.2861 43.6943 26.1914 43.6943V45.6943C26.7022 45.6943 26.999 45.8642 27.2212 46.1778L28.853 45.0214ZM26.1914 43.6943C25.4958 43.6943 24.8392 43.8578 24.2665 44.228C23.6954 44.5972 23.273 45.1296 22.9751 45.7627L24.7847 46.6143C24.9555 46.2513 25.1528 46.0366 25.3522 45.9077C25.5499 45.7799 25.8147 45.6943 26.1914 45.6943V43.6943ZM22.8799 46.1885V50.3018H24.8799V46.1885H22.8799ZM22.9855 50.749C23.2983 51.3746 23.7274 51.8995 24.2957 52.2641C24.8672 52.6307 25.5184 52.7959 26.209 52.7959V50.7959C25.8449 50.7959 25.5805 50.7121 25.3756 50.5807C25.1676 50.4472 24.9596 50.225 24.7743 49.8545L22.9855 50.749ZM26.209 52.7959C27.2918 52.7959 28.2085 52.3538 28.8405 51.4741L27.2162 50.3072C26.981 50.6345 26.6848 50.7959 26.209 50.7959V52.7959ZM28.8405 51.4741C29.4517 50.6234 29.6787 49.4673 29.6787 48.166H27.6787C27.6787 49.2905 27.4722 49.9509 27.2162 50.3072L28.8405 51.4741ZM38.2324 53L37.338 53.4472L37.6144 54H38.2324V53ZM38.0039 51.998L38.9966 51.877L38.742 49.7895L37.2835 51.3045L38.0039 51.998ZM32.9854 52.3848L32.3196 53.131L32.3274 53.1378L32.9854 52.3848ZM33.2139 48.0605L33.8017 48.8696L33.8028 48.8687L33.2139 48.0605ZM37.9775 47.2344V48.2344H38.9775V47.2344H37.9775ZM37.4678 45.1338L36.7606 45.8409L36.7668 45.847L37.4678 45.1338ZM33.917 46.127V47.127H34.917V46.127H33.917ZM32.2822 46.127H31.2822V47.127H32.2822V46.127ZM32.7832 44.7559L31.9883 44.1492L31.987 44.1508L32.7832 44.7559ZM34.1543 43.7012L33.7482 42.7874L33.7447 42.7889L34.1543 43.7012ZM38.6367 44.1406L37.9732 44.8888L37.9772 44.8923L38.6367 44.1406ZM39.6035 46.3994H40.6035V46.3872L40.6032 46.375L39.6035 46.3994ZM39.9375 52.8594H40.9375V52.6527L40.8556 52.4629L39.9375 52.8594ZM39.9375 53V54H40.9375V53H39.9375ZM37.9775 50.3369L38.8769 50.7741L38.9775 50.5671V50.3369H37.9775ZM37.9775 48.3857H38.9775V47.3857H37.9775V48.3857ZM39.1268 52.5528C39.131 52.5611 39.1099 52.5181 39.0799 52.3865C39.0519 52.2635 39.0232 52.0959 38.9966 51.877L37.0113 52.1191C37.0703 52.6034 37.16 53.0912 37.338 53.4472L39.1268 52.5528ZM37.2835 51.3045C36.7079 51.9024 36.0622 52.1758 35.2969 52.1758V54.1758C36.6292 54.1758 37.7882 53.664 38.7243 52.6916L37.2835 51.3045ZM35.2969 52.1758C34.5579 52.1758 34.0344 51.9734 33.6433 51.6317L32.3274 53.1378C33.1434 53.8508 34.1608 54.1758 35.2969 54.1758V52.1758ZM33.6511 51.6386C33.2702 51.2987 33.0889 50.8982 33.0889 50.3633H31.0889C31.0889 51.4572 31.5052 52.4044 32.3196 53.131L33.6511 51.6386ZM33.0889 50.3633C33.0889 49.6676 33.3306 49.2118 33.8017 48.8696L32.6261 47.2515C31.5971 47.9991 31.0889 49.0785 31.0889 50.3633H33.0889ZM33.8028 48.8687C34.3251 48.4881 35.1488 48.2344 36.3955 48.2344V46.2344C34.9118 46.2344 33.6143 46.5314 32.625 47.2524L33.8028 48.8687ZM36.3955 48.2344H37.9775V46.2344H36.3955V48.2344ZM38.9775 47.2344V46.4873H36.9775V47.2344H38.9775ZM38.9775 46.4873C38.9775 45.7063 38.7362 44.9783 38.1687 44.4206L36.7668 45.847C36.8791 45.9573 36.9775 46.1316 36.9775 46.4873H38.9775ZM38.1749 44.4267C37.5858 43.8376 36.7899 43.624 35.9648 43.624V45.624C36.464 45.624 36.67 45.7503 36.7607 45.8409L38.1749 44.4267ZM35.9648 43.624C35.2102 43.624 34.5033 43.8176 33.9078 44.262L35.1039 45.8649C35.2936 45.7234 35.5593 45.624 35.9648 45.624V43.624ZM33.9078 44.262C33.3131 44.7059 32.917 45.3369 32.917 46.127H34.917C34.917 46.085 34.9135 46.007 35.1039 45.8649L33.9078 44.262ZM33.917 45.127H32.2822V47.127H33.917V45.127ZM33.2822 46.127C33.2822 45.9053 33.3552 45.6559 33.5794 45.3609L31.987 44.1508C31.5432 44.7347 31.2822 45.3994 31.2822 46.127H33.2822ZM33.5782 45.3625C33.805 45.0653 34.1225 44.8116 34.5639 44.6134L33.7447 42.7889C33.0377 43.1063 32.4411 43.5558 31.9883 44.1492L33.5782 45.3625ZM34.5604 44.615C35.0016 44.4189 35.4974 44.3145 36.0615 44.3145V42.3145C35.2428 42.3145 34.4671 42.4678 33.7482 42.7874L34.5604 44.615ZM36.0615 44.3145C36.9924 44.3145 37.587 44.5463 37.9732 44.8888L39.3002 43.3924C38.4442 42.6334 37.3221 42.3145 36.0615 42.3145V44.3145ZM37.9772 44.8923C38.3534 45.2224 38.586 45.6922 38.6038 46.4238L40.6032 46.375C40.5742 45.1847 40.1622 44.1487 39.2962 43.3889L37.9772 44.8923ZM38.6035 46.3994V50.7764H40.6035V46.3994H38.6035ZM38.6035 50.7764C38.6035 51.7181 38.7212 52.5651 39.0194 53.2558L40.8556 52.4629C40.7085 52.1224 40.6035 51.5807 40.6035 50.7764H38.6035ZM38.9375 52.8594V53H40.9375V52.8594H38.9375ZM39.9375 52H38.2324V54H39.9375V52ZM35.5342 52.7607C36.2257 52.7607 36.8807 52.5795 37.4841 52.2314L36.4847 50.499C36.174 50.6783 35.8622 50.7607 35.5342 50.7607V52.7607ZM37.4841 52.2314C38.0918 51.8808 38.5738 51.3976 38.8769 50.7741L37.0782 49.8997C36.9711 50.12 36.791 50.3223 36.4847 50.499L37.4841 52.2314ZM38.9775 50.3369V48.3857H36.9775V50.3369H38.9775ZM37.9775 47.3857H36.7031V49.3857H37.9775V47.3857ZM36.7031 47.3857C35.6422 47.3857 34.6825 47.5352 33.9568 47.96C33.1484 48.4331 32.7148 49.2011 32.7148 50.1348H34.7148C34.7148 49.9024 34.7794 49.7959 34.967 49.686C35.2374 49.5278 35.7718 49.3857 36.7031 49.3857V47.3857ZM32.7148 50.1348C32.7148 50.891 32.9803 51.5879 33.5793 52.094L34.87 50.5662C34.7892 50.498 34.7148 50.398 34.7148 50.1348H32.7148ZM33.5793 52.094C34.1338 52.5624 34.8137 52.7607 35.5342 52.7607V50.7607C35.1882 50.7607 34.9951 50.6719 34.87 50.5662L33.5793 52.094ZM43.6904 43.4902L44.6895 43.4462L44.6473 42.4902H43.6904V43.4902ZM43.7432 44.6855L42.7441 44.7296L42.862 47.4012L44.526 45.3078L43.7432 44.6855ZM49.6318 46.7158L50.6319 46.7158L50.6318 46.7081L49.6318 46.7158ZM49.6318 53V54H50.6318V53H49.6318ZM48.0059 53H47.0059V54H48.0059V53ZM48.0059 46.707L49.0059 46.707L49.0058 46.6985L48.0059 46.707ZM47.5312 45.1865L46.7984 45.867L46.805 45.8739L47.5312 45.1865ZM43.7783 46.2236L42.8793 45.7857L42.7783 45.993V46.2236H43.7783ZM43.7783 53V54H44.7783V53H43.7783ZM42.1523 53H41.1523V54H42.1523V53ZM42.1523 43.4902V42.4902H41.1523V43.4902H42.1523ZM42.6914 43.5343L42.7441 44.7296L44.7422 44.6415L44.6895 43.4462L42.6914 43.5343ZM44.526 45.3078C45.062 44.6334 45.7225 44.3145 46.5908 44.3145V42.3145C45.1154 42.3145 43.8774 42.9096 42.9603 44.0633L44.526 45.3078ZM46.5908 44.3145C47.4076 44.3145 47.8518 44.5393 48.1129 44.8313C48.3941 45.1458 48.6241 45.7169 48.6319 46.7236L50.6318 46.7081C50.622 45.4472 50.3364 44.3176 49.6039 43.4983C48.8513 42.6565 47.7838 42.3145 46.5908 42.3145V44.3145ZM48.6318 46.7158V53H50.6318V46.7158H48.6318ZM49.6318 52H48.0059V54H49.6318V52ZM49.0059 53V46.707H47.0059V53H49.0059ZM49.0058 46.6985C48.9989 45.8875 48.813 45.0861 48.2575 44.4991L46.805 45.8739C46.8706 45.9432 47.0011 46.1555 47.0059 46.7156L49.0058 46.6985ZM48.264 44.5061C47.6981 43.8966 46.8997 43.6943 46.0986 43.6943V45.6943C46.5984 45.6943 46.755 45.8202 46.7985 45.867L48.264 44.5061ZM46.0986 43.6943C45.3824 43.6943 44.7143 43.8891 44.1333 44.2992L45.2866 45.9332C45.5025 45.7808 45.7601 45.6943 46.0986 45.6943V43.6943ZM44.1333 44.2992C43.5913 44.6818 43.1725 45.1838 42.8793 45.7857L44.6773 46.6616C44.8294 46.3494 45.0318 46.1131 45.2866 45.9332L44.1333 44.2992ZM42.7783 46.2236V53H44.7783V46.2236H42.7783ZM43.7783 52H42.1523V54H43.7783V52ZM43.1523 53V43.4902H41.1523V53H43.1523ZM42.1523 44.4902H43.6904V42.4902H42.1523V44.4902ZM65.9015 51.752L66.5015 52.552L67.1499 52.0657L66.8084 51.3306L65.9015 51.752ZM65.0855 52.232L65.5155 53.1349L65.5241 53.1307L65.5327 53.1264L65.0855 52.232ZM63.8855 52.688L64.1819 53.6431L64.1819 53.6431L63.8855 52.688ZM62.3255 53.048L62.1611 52.0616L62.1566 52.0624L62.3255 53.048ZM56.8535 52.496L56.4449 53.4087L56.453 53.4123L56.4612 53.4158L56.8535 52.496ZM54.1175 50.576L53.3889 51.2609L53.3889 51.2609L54.1175 50.576ZM52.3895 47.792L51.4544 48.1462L51.4544 48.1462L52.3895 47.792ZM52.4855 40.808L51.5684 40.4092L51.5636 40.4205L52.4855 40.808ZM57.2855 36.08L56.9095 35.1534L56.9048 35.1553L57.2855 36.08ZM63.5495 35.768L63.2895 36.7337L63.2986 36.736L63.5495 35.768ZM64.6775 36.176L64.2303 37.0704L64.2566 37.0836L64.2836 37.0951L64.6775 36.176ZM65.4455 36.632L66.2776 37.1867L66.7548 36.4708L66.1182 35.8921L65.4455 36.632ZM65.1335 37.112L64.2855 36.582L64.2603 36.6223L64.2391 36.6648L65.1335 37.112ZM64.9175 37.52L65.7655 38.05L65.7792 38.0282L65.7917 38.0056L64.9175 37.52ZM64.6535 37.976L65.5314 38.4549L65.5314 38.4549L64.6535 37.976ZM64.2695 38.672L63.7003 39.4942L64.6077 40.1224L65.1437 39.1576L64.2695 38.672ZM63.5255 38.312L63.1927 39.255L63.201 39.2579L63.2093 39.2607L63.5255 38.312ZM62.6615 38.072L62.4555 39.0505L62.4555 39.0505L62.6615 38.072ZM61.7255 37.928L61.6208 38.9225L61.626 38.923L61.7255 37.928ZM58.2935 38.408L58.6875 39.3272L58.6963 39.3233L58.2935 38.408ZM56.2535 39.8L56.9607 40.5072L56.9702 40.4974L56.2535 39.8ZM54.8855 41.816L53.9694 41.4152L53.9658 41.4233L53.9624 41.4314L54.8855 41.816ZM54.8615 46.568L53.9344 46.9428L53.9378 46.9512L53.9414 46.9596L54.8615 46.568ZM56.1575 48.584L55.4212 49.2606L55.4261 49.2659L55.431 49.2712L56.1575 48.584ZM58.1495 50L57.7328 50.9091L57.7399 50.9123L58.1495 50ZM63.4055 50.048L63.0893 49.0992L63.077 49.1035L63.4055 50.048ZM64.3415 49.664L63.8943 48.7696L63.8825 48.7755L63.8709 48.7816L64.3415 49.664ZM64.7975 49.376L65.7044 48.9546L65.0002 47.4391L63.9975 48.776L64.7975 49.376ZM65.3015 50.952C65.1781 51.0446 64.966 51.1737 64.6383 51.3376L65.5327 53.1264C65.9091 52.9383 66.241 52.7474 66.5015 52.552L65.3015 50.952ZM64.6556 51.3291C64.3735 51.4635 64.0204 51.5991 63.5891 51.7329L64.1819 53.6431C64.6787 53.4889 65.1255 53.3205 65.5155 53.1349L64.6556 51.3291ZM63.5891 51.7329C63.176 51.8612 62.7011 51.9716 62.1611 52.0616L62.4899 54.0344C63.102 53.9324 63.6671 53.8028 64.1819 53.6431L63.5891 51.7329ZM62.1566 52.0624C61.6588 52.1477 61.1159 52.192 60.5255 52.192V54.192C61.2152 54.192 61.8722 54.1403 62.4945 54.0336L62.1566 52.0624ZM60.5255 52.192C59.2803 52.192 58.1926 51.9799 57.2458 51.5762L56.4612 53.4158C57.6905 53.9401 59.0507 54.192 60.5255 54.192V52.192ZM57.2622 51.5833C56.3023 51.1535 55.5014 50.5882 54.8461 49.8911L53.3889 51.2609C54.2376 52.1638 55.2607 52.8785 56.4449 53.4087L57.2622 51.5833ZM54.8461 49.8911C54.1866 49.1894 53.6795 48.3746 53.3247 47.4378L51.4544 48.1462C51.8995 49.3214 52.5444 50.3626 53.3889 51.2609L54.8461 49.8911ZM53.3247 47.4378C52.9696 46.5004 52.7895 45.5009 52.7895 44.432H50.7895C50.7895 45.7311 51.0094 46.9716 51.4544 48.1462L53.3247 47.4378ZM52.7895 44.432C52.7895 43.2403 52.9997 42.1655 53.4074 41.1955L51.5636 40.4205C51.0433 41.6585 50.7895 42.9997 50.7895 44.432H52.7895ZM53.4026 41.2067C53.834 40.2144 54.4104 39.3711 55.1296 38.6661L53.7294 37.2379C52.8166 38.1329 52.097 39.1936 51.5684 40.4093L53.4026 41.2067ZM55.1296 38.6661C55.8509 37.9589 56.6937 37.4052 57.6663 37.0047L56.9048 35.1553C55.7014 35.6508 54.6401 36.3451 53.7294 37.2379L55.1296 38.6661ZM57.6615 37.0066C58.642 36.6087 59.6819 36.408 60.7895 36.408V34.408C59.4331 34.408 58.137 34.6553 56.9095 35.1534L57.6615 37.0066ZM60.7895 36.408C61.2074 36.408 61.6353 36.4368 62.0734 36.4952L62.3377 34.5128C61.8158 34.4432 61.2996 34.408 60.7895 34.408V36.408ZM62.0734 36.4952C62.5154 36.5542 62.9203 36.6342 63.2895 36.7336L63.8095 34.8024C63.3467 34.6778 62.8556 34.5818 62.3377 34.5128L62.0734 36.4952ZM63.2986 36.736C63.6786 36.8345 63.9861 36.9483 64.2303 37.0704L65.1247 35.2816C64.7289 35.0837 64.2844 34.9255 63.8005 34.8L63.2986 36.736ZM64.2836 37.0951C64.5662 37.2163 64.7109 37.3157 64.7728 37.3719L66.1182 35.8921C65.8281 35.6283 65.4608 35.4237 65.0714 35.2569L64.2836 37.0951ZM64.6135 36.0773C64.4825 36.2737 64.3727 36.4426 64.2855 36.582L65.9815 37.642C66.0544 37.5254 66.1525 37.3743 66.2776 37.1867L64.6135 36.0773ZM64.2391 36.6648C64.1824 36.7781 64.1173 36.9012 64.0434 37.0344L65.7917 38.0056C65.8777 37.8508 65.9566 37.7019 66.0279 37.5592L64.2391 36.6648ZM64.0695 36.99C63.9763 37.1391 63.8782 37.309 63.7756 37.4971L65.5314 38.4549C65.6208 38.291 65.6987 38.1569 65.7655 38.05L64.0695 36.99ZM63.7756 37.4971C63.6814 37.6699 63.5548 37.8994 63.3954 38.1864L65.1437 39.1576C65.3042 38.8686 65.4336 38.6341 65.5314 38.4549L63.7756 37.4971ZM64.8387 37.8498C64.5391 37.6424 64.2023 37.4835 63.8417 37.3633L63.2093 39.2607C63.4247 39.3325 63.5839 39.4136 63.7003 39.4942L64.8387 37.8498ZM63.8583 37.369C63.5419 37.2573 63.2113 37.1658 62.8675 37.0934L62.4555 39.0505C62.7198 39.1062 62.9652 39.1747 63.1927 39.255L63.8583 37.369ZM62.8675 37.0934C62.5271 37.0218 62.1795 36.9684 61.825 36.933L61.626 38.923C61.9115 38.9516 62.1879 38.9942 62.4555 39.0505L62.8675 37.0934ZM61.8302 36.9335C61.4979 36.8985 61.1824 36.88 60.8855 36.88V38.88C61.1006 38.88 61.3452 38.8935 61.6208 38.9225L61.8302 36.9335ZM60.8855 36.88C59.8276 36.88 58.8254 37.0814 57.8908 37.4927L58.6963 39.3233C59.3616 39.0306 60.0875 38.88 60.8855 38.88V36.88ZM57.8996 37.4889C56.9985 37.8751 56.2077 38.4131 55.5368 39.1026L56.9702 40.4974C57.4513 40.0029 58.0206 39.6129 58.6874 39.3271L57.8996 37.4889ZM55.5464 39.0929C54.8797 39.7596 54.3539 40.5363 53.9694 41.4152L55.8017 42.2168C56.0892 41.5597 56.4754 40.9924 56.9606 40.5071L55.5464 39.0929ZM53.9624 41.4314C53.5917 42.3213 53.4055 43.252 53.4055 44.216H55.4055C55.4055 43.516 55.5394 42.8467 55.8086 42.2006L53.9624 41.4314ZM53.4055 44.216C53.4055 45.1597 53.582 46.071 53.9344 46.9428L55.7886 46.1932C55.5331 45.561 55.4055 44.9043 55.4055 44.216H53.4055ZM53.9414 46.9596C54.3052 47.8146 54.7988 48.5834 55.4212 49.2606L56.8938 47.9074C56.4282 47.4006 56.0578 46.8254 55.7817 46.1764L53.9414 46.9596ZM55.431 49.2712C56.0824 49.9598 56.8527 50.5056 57.7329 50.9091L58.5662 49.0909C57.9103 48.7904 57.3527 48.3922 56.884 47.8968L55.431 49.2712ZM57.7399 50.9123C58.6628 51.3266 59.6597 51.528 60.7175 51.528V49.528C59.9193 49.528 59.2043 49.3774 58.5591 49.0877L57.7399 50.9123ZM60.7175 51.528C61.2784 51.528 61.8264 51.4737 62.3601 51.3633L61.9549 49.4047C61.5606 49.4863 61.1486 49.528 60.7175 49.528V51.528ZM62.3601 51.3633C62.858 51.2602 63.3172 51.1375 63.734 50.9925L63.077 49.1035C62.7578 49.2145 62.385 49.3158 61.9549 49.4047L62.3601 51.3633ZM63.7217 50.9967C64.1359 50.8586 64.505 50.7101 64.8121 50.5464L63.8709 48.7816C63.698 48.8739 63.4431 48.9814 63.0893 49.0993L63.7217 50.9967ZM64.7887 50.5584C64.9313 50.4871 65.066 50.4144 65.1815 50.3415C65.2641 50.2894 65.4542 50.1671 65.5975 49.976L63.9975 48.776C64.0301 48.7326 64.0594 48.7022 64.0773 48.6848C64.0959 48.6666 64.1103 48.6548 64.1173 48.6491C64.1303 48.6388 64.1316 48.6391 64.1135 48.6505C64.0969 48.661 64.0708 48.6766 64.0328 48.6974C63.9952 48.718 63.9493 48.7421 63.8943 48.7696L64.7887 50.5584ZM63.8906 49.7974L64.9946 52.1734L66.8084 51.3306L65.7044 48.9546L63.8906 49.7974ZM79.0702 53L78.1598 53.4138L78.4263 54H79.0702V53ZM78.7342 52.232L77.8151 52.6259L77.8151 52.6259L78.7342 52.232ZM78.2302 51.08L77.2995 51.4457L77.3075 51.4661L77.3164 51.4861L78.2302 51.08ZM77.6302 49.64L76.6998 50.0065L76.7066 50.0238L76.714 50.0408L77.6302 49.64ZM76.9822 48.008L77.9107 47.6366L77.6592 47.008H76.9822V48.008ZM70.8382 48.008V47.008H70.1696L69.9141 47.6259L70.8382 48.008ZM68.7742 53V54H69.4428L69.6983 53.3821L68.7742 53ZM66.1822 53L65.2621 52.6084L64.6699 54H66.1822V53ZM73.9342 34.784L74.8533 34.3901L73.931 32.2378L73.0141 34.3924L73.9342 34.784ZM74.4382 36.008L73.5115 36.3837L73.5158 36.3944L73.5203 36.4049L74.4382 36.008ZM75.3262 38.144L74.399 38.5185L74.4034 38.5293L74.408 38.5401L75.3262 38.144ZM76.4782 40.88L75.5538 41.2615L75.5575 41.2704L75.5614 41.2793L76.4782 40.88ZM77.7742 43.904L76.8528 44.2927L76.858 44.3048L77.7742 43.904ZM79.0702 46.928L78.1479 47.3148L78.1534 47.3273L79.0702 46.928ZM80.2462 49.664L81.1672 49.2744L81.1672 49.2744L80.2462 49.664ZM81.1342 51.8L80.2075 52.1757L80.2137 52.191L80.2204 52.2061L81.1342 51.8ZM81.6622 53V54H83.1787L82.5813 52.6061L81.6622 53ZM71.7502 45.8L70.8257 45.4188L70.2561 46.8H71.7502V45.8ZM76.0942 45.8V46.8H77.6047L77.0148 45.4094L76.0942 45.8ZM75.4462 44.288L74.5136 44.649L74.5208 44.6674L74.5286 44.6856L75.4462 44.288ZM74.8942 42.944L73.9609 43.303L73.9694 43.3251L73.9789 43.3467L74.8942 42.944ZM74.1742 41.144L75.114 40.8023L75.0943 40.7482L75.0686 40.6968L74.1742 41.144ZM74.0542 40.808L73.0841 41.0505L73.0934 41.0878L73.1055 41.1242L74.0542 40.808ZM73.9342 40.28L74.9148 40.0839L72.9536 40.0839L73.9342 40.28ZM73.7902 40.808L74.7389 41.1242L74.7389 41.1242L73.7902 40.808ZM73.6702 41.144L72.7758 40.6968L72.7596 40.7292L72.7457 40.7628L73.6702 41.144ZM79.9806 52.5862C79.9051 52.4202 79.7965 52.1722 79.6533 51.8381L77.8151 52.6259C77.9599 52.9638 78.0753 53.2278 78.1598 53.4138L79.9806 52.5862ZM79.6533 51.8381C79.5072 51.497 79.3373 51.1088 79.144 50.6739L77.3164 51.4861C77.5071 51.9152 77.6732 52.295 77.8151 52.6259L79.6533 51.8381ZM79.161 50.7143C78.9796 50.2528 78.7747 49.761 78.5464 49.2392L76.714 50.0408C76.9337 50.543 77.1288 51.0112 77.2995 51.4457L79.161 50.7143ZM78.5606 49.2735C78.3519 48.7438 78.1353 48.1981 77.9107 47.6366L76.0537 48.3794C76.2771 48.9379 76.4925 49.4802 76.6998 50.0065L78.5606 49.2735ZM76.9822 47.008H70.8382V49.008H76.9822V47.008ZM69.9141 47.6259L67.8501 52.6179L69.6983 53.3821L71.7623 48.3901L69.9141 47.6259ZM68.7742 52H66.1822V54H68.7742V52ZM67.1023 53.3916L74.8543 35.1756L73.0141 34.3924L65.2621 52.6084L67.1023 53.3916ZM73.0151 35.1779C73.1067 35.3917 73.2712 35.7911 73.5115 36.3837L75.3649 35.6323C75.1252 35.0409 74.9537 34.6243 74.8533 34.3901L73.0151 35.1779ZM73.5203 36.4049C73.7722 36.9872 74.0649 37.6913 74.399 38.5185L76.2534 37.7695C75.9155 36.9327 75.6162 36.2128 75.3561 35.6111L73.5203 36.4049ZM74.408 38.5401C74.7575 39.3503 75.1394 40.2573 75.5538 41.2615L77.4026 40.4985C76.985 39.4867 76.5989 38.5697 76.2444 37.7479L74.408 38.5401ZM75.5614 41.2793C75.9918 42.2677 76.4223 43.2721 76.8528 44.2927L78.6956 43.5153C78.2621 42.4879 77.8286 41.4763 77.395 40.4807L75.5614 41.2793ZM76.858 44.3048C77.3041 45.3243 77.7341 46.3276 78.148 47.3147L79.9924 46.5413C79.5743 45.5444 79.1403 44.5317 78.6904 43.5032L76.858 44.3048ZM78.1534 47.3273C78.5842 48.3167 78.9748 49.2254 79.3252 50.0536L81.1672 49.2744C80.8136 48.4386 80.4202 47.5233 79.987 46.5287L78.1534 47.3273ZM79.3252 50.0536C79.676 50.8827 79.9699 51.5898 80.2075 52.1757L82.0609 51.4243C81.8185 50.8262 81.5204 50.1093 81.1672 49.2744L79.3252 50.0536ZM80.2204 52.2061C80.4765 52.7825 80.65 53.1768 80.7431 53.3939L82.5813 52.6061C82.4824 52.3752 82.3039 51.9695 82.048 51.3939L80.2204 52.2061ZM81.6622 52H79.0702V54H81.6622V52ZM71.7502 46.8H76.0942V44.8H71.7502V46.8ZM77.0148 45.4094C76.7899 44.8793 76.5729 44.373 76.3638 43.8904L74.5286 44.6856C74.7355 45.163 74.9505 45.6647 75.1736 46.1906L77.0148 45.4094ZM76.3788 43.927C76.1825 43.4198 75.9927 42.9576 75.8095 42.5413L73.9789 43.3467C74.1477 43.7304 74.326 44.1642 74.5136 44.649L76.3788 43.927ZM75.8275 42.585C75.665 42.1624 75.517 41.7922 75.3838 41.4759L73.5406 42.2521C73.6634 42.5438 73.8034 42.8936 73.9609 43.303L75.8275 42.585ZM75.3838 41.4759C75.2582 41.1776 75.1696 40.9553 75.114 40.8023L73.2344 41.4857C73.3068 41.6847 73.4102 41.9424 73.5406 42.2521L75.3838 41.4759ZM75.0686 40.6968C75.0798 40.7192 75.0867 40.7354 75.088 40.7386C75.0902 40.7437 75.0909 40.7455 75.0897 40.7426C75.0874 40.7365 75.0823 40.723 75.0739 40.6997C75.0574 40.6534 75.034 40.585 75.0029 40.4918L73.1055 41.1242C73.1562 41.2761 73.2233 41.4783 73.2798 41.5912L75.0686 40.6968ZM75.0243 40.5655C74.9794 40.3857 74.9431 40.2255 74.9148 40.0839L72.9536 40.4761C72.9893 40.6545 73.033 40.8463 73.0841 41.0505L75.0243 40.5655ZM72.9536 40.0839C72.9314 40.1949 72.8954 40.3302 72.8415 40.4918L74.7389 41.1242C74.813 40.9018 74.873 40.6851 74.9148 40.4761L72.9536 40.0839ZM72.8415 40.4918C72.8104 40.585 72.787 40.6534 72.7705 40.6997C72.7621 40.723 72.7571 40.7365 72.7547 40.7426C72.7536 40.7455 72.7542 40.7437 72.7564 40.7386C72.7577 40.7354 72.7646 40.7192 72.7758 40.6968L74.5646 41.5912C74.6211 41.4783 74.6882 41.2761 74.7389 41.1242L72.8415 40.4918ZM72.7457 40.7628L70.8257 45.4188L72.6747 46.1812L74.5947 41.5252L72.7457 40.7628ZM83.8333 53H82.8333V54H83.8333V53ZM83.8333 35.6V34.6H82.8333V35.6H83.8333ZM91.0813 35.96L90.7772 36.9127L90.783 36.9145L91.0813 35.96ZM93.0493 37.04L92.3876 37.7898L92.3993 37.8001L92.4112 37.81L93.0493 37.04ZM94.3453 38.768L93.4305 39.1722L93.4342 39.1802L94.3453 38.768ZM94.6573 42.536L95.6365 42.7386L95.6378 42.7321L94.6573 42.536ZM94.1773 43.904L93.2828 43.4568L93.2795 43.4635L93.2763 43.4702L94.1773 43.904ZM93.3613 45.128L94.0998 45.8023L94.1069 45.7945L94.1138 45.7865L93.3613 45.128ZM92.1373 46.064L91.6667 45.1816L90.7148 45.6893L91.2931 46.6L92.1373 46.064ZM94.2253 49.424L93.3717 49.945L93.3748 49.95L94.2253 49.424ZM96.5053 53V54H98.3596L97.3408 52.4506L96.5053 53ZM93.3613 53L92.521 53.5421L92.8164 54H93.3613V53ZM92.3533 51.44L91.5025 51.9655L91.508 51.9744L91.5137 51.9833L92.3533 51.44ZM91.3213 49.832L90.4705 50.3575L90.4796 50.3723L90.4892 50.3867L91.3213 49.832ZM90.3133 48.248L89.4581 48.7663L89.4674 48.7817L89.4772 48.7967L90.3133 48.248ZM89.4013 46.784L90.2424 46.2432L89.9472 45.784H89.4013V46.784ZM86.4733 46.784V45.784H85.4733V46.784H86.4733ZM86.4733 53V54H87.4733V53H86.4733ZM86.4733 44.312H85.4733V45.312H86.4733V44.312ZM90.4573 44L90.8911 44.901L90.9044 44.8946L90.9176 44.8878L90.4573 44ZM91.4653 43.184L90.6844 42.5593L90.6746 42.5715L90.6653 42.584L91.4653 43.184ZM91.9933 42.152L91.0366 41.8608L91.0307 41.8801L91.0256 41.8996L91.9933 42.152ZM91.9933 40.16L91.0256 40.4124L91.0323 40.438L91.0403 40.4632L91.9933 40.16ZM91.4653 39.152L90.6844 39.7767L90.6923 39.7865L90.7004 39.7961L91.4653 39.152ZM90.4333 38.36L89.9861 39.2544L89.9927 39.2578L89.9995 39.261L90.4333 38.36ZM86.4733 38.048V37.048H85.4733V38.048H86.4733ZM84.8333 53V35.6H82.8333V53H84.8333ZM83.8333 36.6H88.5853V34.6H83.8333V36.6ZM88.5853 36.6C89.4098 36.6 90.1374 36.7085 90.7772 36.9127L91.3853 35.0073C90.5211 34.7315 89.5848 34.6 88.5853 34.6V36.6ZM90.783 36.9145C91.4316 37.1172 91.96 37.4125 92.3876 37.7898L93.7109 36.2902C93.0505 35.7075 92.267 35.2828 91.3795 35.0055L90.783 36.9145ZM92.4112 37.81C92.8478 38.1717 93.187 38.6209 93.4306 39.1722L95.26 38.3638C94.8955 37.5391 94.3708 36.8363 93.6873 36.27L92.4112 37.81ZM93.4342 39.1802C93.6694 39.7001 93.8013 40.3311 93.8013 41.096H95.8013C95.8013 40.1009 95.6292 39.1799 95.2564 38.3558L93.4342 39.1802ZM93.8013 41.096C93.8013 41.5089 93.76 41.9232 93.6767 42.3399L95.6378 42.7321C95.7465 42.1888 95.8013 41.6431 95.8013 41.096H93.8013ZM93.678 42.3334C93.6005 42.7078 93.4703 43.0819 93.2828 43.4568L95.0717 44.3512C95.3322 43.8301 95.522 43.2922 95.6365 42.7386L93.678 42.3334ZM93.2763 43.4702C93.1098 43.8159 92.8891 44.149 92.6087 44.4695L94.1138 45.7865C94.5054 45.339 94.8287 44.8561 95.0783 44.3378L93.2763 43.4702ZM92.6228 44.4537C92.3703 44.7302 92.0554 44.9743 91.6667 45.1816L92.6079 46.9464C93.1792 46.6417 93.6802 46.2618 94.0998 45.8023L92.6228 44.4537ZM91.2931 46.6C91.9293 47.6021 92.6222 48.717 93.3717 49.945L95.0788 48.903C94.3244 47.667 93.6252 46.5419 92.9815 45.528L91.2931 46.6ZM93.3748 49.95C94.1315 51.1737 94.8965 52.3735 95.6697 53.5494L97.3408 52.4506C96.578 51.2905 95.823 50.1063 95.0758 48.898L93.3748 49.95ZM96.5053 52H93.3613V54H96.5053V52ZM94.2016 52.4579C93.8813 51.9615 93.5451 51.4411 93.1928 50.8967L91.5137 51.9833C91.8655 52.5269 92.2012 53.0465 92.521 53.5421L94.2016 52.4579ZM93.2041 50.9145C92.862 50.3607 92.5118 49.815 92.1533 49.2773L90.4892 50.3867C90.8347 50.905 91.1725 51.4313 91.5025 51.9655L93.2041 50.9145ZM92.1721 49.3065C91.8315 48.7551 91.4906 48.2193 91.1493 47.6993L89.4772 48.7967C89.808 49.3007 90.1391 49.8209 90.4705 50.3575L92.1721 49.3065ZM91.1685 47.7297C90.8446 47.1953 90.5359 46.6997 90.2424 46.2432L88.5601 47.3248C88.8426 47.7643 89.1419 48.2447 89.4581 48.7663L91.1685 47.7297ZM89.4013 45.784H88.9213V47.784H89.4013V45.784ZM88.9213 45.784H86.4733V47.784H88.9213V45.784ZM85.4733 46.784V53H87.4733V46.784H85.4733ZM86.4733 52H83.8333V54H86.4733V52ZM86.4733 45.312H88.8493V43.312H86.4733V45.312ZM88.8493 45.312C89.5915 45.312 90.2863 45.1922 90.8911 44.901L90.0234 43.099C89.7642 43.2238 89.387 43.312 88.8493 43.312V45.312ZM90.9176 44.8878C91.4546 44.6093 91.9177 44.2474 92.2653 43.784L90.6653 42.584C90.5328 42.7606 90.3239 42.9427 89.9969 43.1122L90.9176 44.8878ZM92.2461 43.8087C92.5829 43.3877 92.8268 42.9185 92.9609 42.4044L91.0256 41.8996C90.9678 42.1215 90.8596 42.3403 90.6844 42.5593L92.2461 43.8087ZM92.9499 42.4432C93.0834 42.0046 93.1613 41.5688 93.1613 41.144H91.1613C91.1613 41.3272 91.1271 41.5634 91.0366 41.8608L92.9499 42.4432ZM93.1613 41.144C93.1613 40.7178 93.0829 40.2865 92.9462 39.8568L91.0403 40.4632C91.1276 40.7375 91.1613 40.9622 91.1613 41.144H93.1613ZM92.9609 39.9076C92.8256 39.389 92.5776 38.9205 92.2302 38.5079L90.7004 39.7961C90.8649 39.9915 90.9689 40.195 91.0256 40.4124L92.9609 39.9076ZM92.2461 38.5273C91.882 38.0721 91.4112 37.721 90.8671 37.459L89.9995 39.261C90.3194 39.415 90.5366 39.5919 90.6844 39.7767L92.2461 38.5273ZM90.8805 37.4656C90.2865 37.1686 89.6019 37.048 88.8733 37.048V39.048C89.3926 39.048 89.748 39.1354 89.9861 39.2544L90.8805 37.4656ZM88.8733 37.048H86.4733V39.048H88.8733V37.048ZM85.4733 38.048V44.312H87.4733V38.048H85.4733ZM109.032 35.6H110.032V34.6H109.032V35.6ZM109.032 38.096V39.096H110.032V38.096H109.032ZM104.64 38.096V37.096H103.64V38.096H104.64ZM104.64 53V54H105.64V53H104.64ZM102.024 53H101.024V54H102.024V53ZM102.024 38.096H103.024V37.096H102.024V38.096ZM97.7276 38.096H96.7276V39.096H97.7276V38.096ZM97.7276 35.6V34.6H96.7276V35.6H97.7276ZM108.032 35.6V38.096H110.032V35.6H108.032ZM109.032 37.096H104.64V39.096H109.032V37.096ZM103.64 38.096V53H105.64V38.096H103.64ZM104.64 52H102.024V54H104.64V52ZM103.024 53V38.096H101.024V53H103.024ZM102.024 37.096H97.7276V39.096H102.024V37.096ZM98.7276 38.096V35.6H96.7276V38.096H98.7276ZM97.7276 36.6H109.032V34.6H97.7276V36.6ZM113.394 48.392L114.08 49.1202L114.081 49.119L113.394 48.392ZM117.09 48.392L116.383 49.0991L116.404 49.1199L116.426 49.1394L117.09 48.392ZM117.09 52.28L116.45 51.5118L116.439 51.5208L116.429 51.5302L117.09 52.28ZM113.394 52.28L112.733 53.0298L112.743 53.0392L112.754 53.0482L113.394 52.28ZM113.578 50.312C113.578 49.811 113.743 49.4373 114.08 49.1202L112.709 47.6638C111.958 48.3707 111.578 49.277 111.578 50.312H113.578ZM114.081 49.119C114.497 48.7265 114.898 48.576 115.314 48.576V46.576C114.322 46.576 113.444 46.9695 112.708 47.665L114.081 49.119ZM115.314 48.576C115.637 48.576 115.986 48.7021 116.383 49.0991L117.797 47.6849C117.106 46.9939 116.272 46.576 115.314 46.576V48.576ZM116.426 49.1394C116.789 49.4624 116.954 49.8308 116.954 50.312H118.954C118.954 49.2572 118.543 48.3456 117.755 47.6446L116.426 49.1394ZM116.954 50.312C116.954 50.884 116.771 51.2441 116.45 51.5118L117.731 53.0482C118.561 52.3559 118.954 51.404 118.954 50.312H116.954ZM116.429 51.5302C116.041 51.872 115.678 52 115.314 52V54C116.231 54 117.051 53.648 117.752 53.0298L116.429 51.5302ZM115.314 52C114.86 52 114.443 51.8525 114.035 51.5118L112.754 53.0482C113.497 53.6675 114.36 54 115.314 54V52ZM114.056 51.5302C113.76 51.2688 113.578 50.9037 113.578 50.312H111.578C111.578 51.3843 111.941 52.3312 112.733 53.0298L114.056 51.5302Z" fill="black" fill-opacity="0.1"/>
</svg>
